{"title":"Fast And Furious 7 {2015} NEW TELESYNC XVID MP3 MURD3R","uid":11825566,"size":2033824648,"categoryP":"video","categoryS":"movies","magnet":"?xt=urn:btih:0121e2519f6516c7450eb33b3ad0f89e79668bae&amp;dn=Fast+And+Furious+7+%7B2015%7D+NEW+TELESYNC+XVID+MP3+MURD3R&amp;tr=udp%3A%2F%2Ftracker.openbittorrent.com%3A80&amp;tr=udp%3A%2F%2Fopen.demonii.com%3A1337&amp;tr=udp%3A%2F%2Ftracker.coppersurfer.tk%3A6969&amp;tr=udp%3A%2F%2Fexodus.desync.com%3A6969","seeders":6,"leechers":2,"uploader":".BONE.","files":6,"time":1429481796,"description":"Fast And Furious 7 {2015} NEW TELESYNC XVID MP3 MURD3R.avi\n\nHARDCORE CHINESE SUBS...........INTRO..CUT......FULL..MOVIE.. 3 SAMPLES INSIDE ...\n\nSOURCE                      : 72OP HDTC....\nFormat                      : AVI\nFormat/Info                 : Audio Video Interleave\nFile size                   : 1.79 GiB\nDuration                    : 2h 9mn\nOverall bit rate            : 1 969 Kbps\n\nVideo\nID                          : 0\nFormat                      : MPEG-4 Visual\nFormat profile              : Advanced Simple@L5\nFormat settings, BVOP       : 2\nFormat settings, QPel       : No\nFormat settings, GMC        : No warppoints\nFormat settings, Matrix     : Default (H.263)\nCodec ID                    : XVID\nCodec ID/Hint               : XviD\nDuration                    : 2h 9mn\nBit rate                    : 1 863 Kbps\nWidth                       : 720 pixels\nHeight                      : 344 pixels\nDisplay aspect ratio        : 2.093\nFrame rate                  : 25.000 fps\nColor space                 : YUV\nChroma subsampling          : 4:2:0\nBit depth                   : 8 bits\nScan type                   : Progressive\nCompression mode            : Lossy\nBits/(Pixel*Frame)          : 0.301\nStream size                 : 1.69 GiB (95%)\nWriting library             : XviD 73\n\nAudio\nID                          : 1\nFormat                      : MPEG Audio\nFormat version              : Version 1\nFormat profile              : Layer 3\nCodec ID                    : 55\nCodec ID/Hint               : MP3\nDuration                    : 1h 56mn\nSource duration             : 2h 9mn\nBit rate mode               : Constant\nBit rate                    : 96.0 Kbps\nChannel(s)                  : 2 channels\nSampling rate               : 32.0 KHz\nCompression mode            : Lossy\nStream size                 : 89.2 MiB (5%)\nAlignment                   : Aligned on interleaves\nInterleave, duration        : 36 ms (0.90 video frame)\n &lt;a href=&quot;\nhttp://s20.postimage.org/mgygsqfi5/MURD3_Rvlcsnap_2015_04_19_18h00m10s98.png&quot; rel=&quot;nofollow&quot; target=&quot;_NEW&quot;&gt;\nhttp://s20.postimage.org/mgygsqfi5/MURD3_Rvlcsnap_2015_04_19_18h00m10s98.png&lt;/a&gt; &lt;a href=&quot;\nhttp://s20.postimage.org/efa8atwql/MURD3_Rvlcsnap_2015_04_19_17h57m54s16.png&quot; rel=&quot;nofollow&quot; target=&quot;_NEW&quot;&gt;\nhttp://s20.postimage.org/efa8atwql/MURD3_Rvlcsnap_2015_04_19_17h57m54s16.png&lt;/a&gt; &lt;a href=&quot;\nhttp://s20.postimage.org/70kwigav1/MURD3_Rvlcsnap_2015_04_19_17h55m17s234.png&quot; rel=&quot;nofollow&quot; target=&quot;_NEW&quot;&gt;\nhttp://s20.postimage.org/70kwigav1/MURD3_Rvlcsnap_2015_04_19_17h55m17s234.png&lt;/a&gt; &lt;a href=&quot;\nhttp://s20.postimage.org/xa5z18wsd/MURD3_Rvlcsnap_2015_04_19_18h04m18s14.png&quot; rel=&quot;nofollow&quot; target=&quot;_NEW&quot;&gt;\nhttp://s20.postimage.org/xa5z18wsd/MURD3_Rvlcsnap_2015_04_19_18h04m18s14.png&lt;/a&gt; &lt;a href=&quot;\nhttp://s20.postimage.org/9lvj336kd/MURD3_Rvlcsnap_2015_04_19_18h06m17s182.png&quot; rel=&quot;nofollow&quot; target=&quot;_NEW&quot;&gt;\nhttp://s20.postimage.org/9lvj336kd/MURD3_Rvlcsnap_2015_04_19_18h06m17s182.png&lt;/a&gt; &lt;a href=&quot;\nhttp://s20.postimage.org/mftkwfjzx/MURD3_Rvlcsnap_2015_04_19_18h06m06s70.png&quot; rel=&quot;nofollow&quot; target=&quot;_NEW&quot;&gt;\nhttp://s20.postimage.org/mftkwfjzx/MURD3_Rvlcsnap_2015_04_19_18h06m06s70.png&lt;/a&gt; &lt;a href=&quot;\nhttp://s20.postimage.org/u4v0lw9vh/MURD3_Rvlcsnap_2015_04_19_18h09m51s13.png&quot; rel=&quot;nofollow&quot; target=&quot;_NEW&quot;&gt;\nhttp://s20.postimage.org/u4v0lw9vh/MURD3_Rvlcsnap_2015_04_19_18h09m51s13.png&lt;/a&gt; &lt;a href=&quot;\nhttp://s20.postimage.org/56hpbkjjx/MURD3_Rvlcsnap_2015_04_19_18h16m03s156.png&quot; rel=&quot;nofollow&quot; target=&quot;_NEW&quot;&gt;\nhttp://s20.postimage.org/56hpbkjjx/MURD3_Rvlcsnap_2015_04_19_18h16m03s156.png&lt;/a&gt;","torrent":{"xt":"urn:btih:0121e2519f6516c7450eb33b3ad0f89e79668bae","amp;dn":"Fast+And+Furious+7+%7B2015%7D+NEW+TELESYNC+XVID+MP3+MURD3R","amp;tr":["udp%3A%2F%2Ftracker.openbittorrent.com%3A80","udp%3A%2F%2Fopen.demonii.com%3A1337","udp%3A%2F%2Ftracker.coppersurfer.tk%3A6969","udp%3A%2F%2Fexodus.desync.com%3A6969"],"infoHash":"0121e2519f6516c7450eb33b3ad0f89e79668bae","infoHashBuffer":{"type":"Buffer","data":[1,33,226,81,159,101,22,199,69,14,179,59,58,208,248,158,121,102,139,174]},"announce":[],"urlList":[]}}